<?xml version="1.0" encoding="UTF-8" standalone="no"?>
<!DOCTYPE svg PUBLIC "-//W3C//DTD SVG 1.1//EN"
 "http://www.w3.org/Graphics/SVG/1.1/DTD/svg11.dtd">
<!-- Generated by graphviz version 2.40.1 (20161225.0304)
 -->
<!-- Title: G Pages: 1 -->
<svg width="332pt" height="227pt"
 viewBox="0.00 0.00 332.00 226.60" xmlns="http://www.w3.org/2000/svg" xmlns:xlink="http://www.w3.org/1999/xlink">
<g id="graph0" class="graph" transform="scale(1 1) rotate(0) translate(4 222.6)">
<title>G</title>
<polygon fill="#ffffff" stroke="transparent" points="-4,4 -4,-222.6 328,-222.6 328,4 -4,4"/>
<g id="clust1" class="cluster">
<title>cluster_server</title>
<path fill="none" stroke="#000000" stroke-dasharray="1,5" d="M20,-56C20,-56 304,-56 304,-56 310,-56 316,-62 316,-68 316,-68 316,-162.6 316,-162.6 316,-168.6 310,-174.6 304,-174.6 304,-174.6 20,-174.6 20,-174.6 14,-174.6 8,-168.6 8,-162.6 8,-162.6 8,-68 8,-68 8,-62 14,-56 20,-56"/>
<text text-anchor="middle" x="36.2216" y="-158" font-family="Times,serif" font-size="14.00" fill="#000000">服务端</text>
</g>
<g id="clust2" class="cluster">
<title>cluster_node1</title>
<polygon fill="none" stroke="#000000" points="166,-64 166,-141.8 308,-141.8 308,-64 166,-64"/>
<text text-anchor="middle" x="200.2486" y="-125.2" font-family="Times,serif" font-size="14.00" fill="#000000">应用实例</text>
</g>
<g id="clust3" class="cluster">
<title>cluster_node2</title>
<polygon fill="none" stroke="#000000" points="16,-64 16,-141.8 158,-141.8 158,-64 16,-64"/>
<text text-anchor="middle" x="50.2486" y="-125.2" font-family="Times,serif" font-size="14.00" fill="#000000">应用实例</text>
</g>
<!-- 客户端 -->
<g id="node1" class="node">
<title>客户端</title>
<ellipse fill="none" stroke="#000000" cx="162" cy="-200.6" rx="44.4319" ry="18"/>
<text text-anchor="middle" x="162" y="-196.4" font-family="Times,serif" font-size="14.00" fill="#000000">客户端</text>
</g>
<!-- thread1 -->
<g id="node2" class="node">
<title>thread1</title>
<polygon fill="none" stroke="#000000" points="246,-72.5 246,-108.5 300,-108.5 300,-72.5 246,-72.5"/>
<text text-anchor="middle" x="272.9646" y="-86.3" font-family="Times,serif" font-size="14.00" fill="#000000">线程</text>
</g>
<!-- 客户端&#45;&gt;thread1 -->
<g id="edge1" class="edge">
<title>客户端&#45;&gt;thread1</title>
<path fill="none" stroke="#000000" d="M202.7032,-193.1504C214.8921,-189.2813 227.5217,-183.4303 237,-174.6 252.908,-159.7797 262.0968,-136.761 267.2036,-118.5499"/>
<polygon fill="#000000" stroke="#000000" points="270.6241,-119.3004 269.6982,-108.7462 263.8403,-117.5743 270.6241,-119.3004"/>
</g>
<!-- thread2 -->
<g id="node3" class="node">
<title>thread2</title>
<polygon fill="none" stroke="#000000" points="174,-72.5 174,-108.5 228,-108.5 228,-72.5 174,-72.5"/>
<text text-anchor="middle" x="200.9646" y="-86.3" font-family="Times,serif" font-size="14.00" fill="#000000">线程</text>
</g>
<!-- 客户端&#45;&gt;thread2 -->
<g id="edge2" class="edge">
<title>客户端&#45;&gt;thread2</title>
<path fill="none" stroke="#000000" d="M168.4401,-182.4192C174.6217,-164.9679 184.0441,-138.3678 191.165,-118.2651"/>
<polygon fill="#000000" stroke="#000000" points="194.5105,-119.3025 194.5504,-108.7078 187.9122,-116.9652 194.5105,-119.3025"/>
</g>
<!-- thread3 -->
<g id="node4" class="node">
<title>thread3</title>
<polygon fill="none" stroke="#000000" points="96,-72.5 96,-108.5 150,-108.5 150,-72.5 96,-72.5"/>
<text text-anchor="middle" x="122.9646" y="-86.3" font-family="Times,serif" font-size="14.00" fill="#000000">线程</text>
</g>
<!-- 客户端&#45;&gt;thread3 -->
<g id="edge3" class="edge">
<title>客户端&#45;&gt;thread3</title>
<path fill="none" stroke="#000000" d="M155.5599,-182.4192C149.3783,-164.9679 139.9559,-138.3678 132.835,-118.2651"/>
<polygon fill="#000000" stroke="#000000" points="136.0878,-116.9652 129.4496,-108.7078 129.4895,-119.3025 136.0878,-116.9652"/>
</g>
<!-- thread4 -->
<g id="node5" class="node">
<title>thread4</title>
<polygon fill="none" stroke="#000000" points="24,-72.5 24,-108.5 78,-108.5 78,-72.5 24,-72.5"/>
<text text-anchor="middle" x="50.9646" y="-86.3" font-family="Times,serif" font-size="14.00" fill="#000000">线程</text>
</g>
<!-- 客户端&#45;&gt;thread4 -->
<g id="edge4" class="edge">
<title>客户端&#45;&gt;thread4</title>
<path fill="none" stroke="#000000" d="M121.2968,-193.1504C109.1079,-189.2813 96.4783,-183.4303 87,-174.6 71.092,-159.7797 61.9032,-136.761 56.7964,-118.5499"/>
<polygon fill="#000000" stroke="#000000" points="60.1597,-117.5743 54.3018,-108.7462 53.3759,-119.3004 60.1597,-117.5743"/>
</g>
<!-- 数据库 -->
<g id="node6" class="node">
<title>数据库</title>
<path fill="none" stroke="#000000" d="M189.4995,-32.7273C189.4995,-34.5331 177.1738,-36 162,-36 146.8262,-36 134.5005,-34.5331 134.5005,-32.7273 134.5005,-32.7273 134.5005,-3.2727 134.5005,-3.2727 134.5005,-1.4669 146.8262,0 162,0 177.1738,0 189.4995,-1.4669 189.4995,-3.2727 189.4995,-3.2727 189.4995,-32.7273 189.4995,-32.7273"/>
<path fill="none" stroke="#000000" d="M189.4995,-32.7273C189.4995,-30.9214 177.1738,-29.4545 162,-29.4545 146.8262,-29.4545 134.5005,-30.9214 134.5005,-32.7273"/>
<text text-anchor="middle" x="162" y="-13.8" font-family="Times,serif" font-size="14.00" fill="#000000">数据库</text>
</g>
<!-- thread1&#45;&gt;数据库 -->
<g id="edge5" class="edge">
<title>thread1&#45;&gt;数据库</title>
<path fill="none" stroke="#000000" d="M255.9726,-72.1911C250.2563,-66.6064 243.639,-60.7051 237,-56 225.2322,-47.6601 211.3749,-40.0969 198.7944,-33.9534"/>
<polygon fill="#000000" stroke="#000000" points="200.0145,-30.6586 189.4786,-29.5428 197.0191,-36.9854 200.0145,-30.6586"/>
</g>
<!-- thread2&#45;&gt;数据库 -->
<g id="edge6" class="edge">
<title>thread2&#45;&gt;数据库</title>
<path fill="none" stroke="#000000" d="M191.1587,-72.2052C186.7373,-63.9859 181.4296,-54.1191 176.5615,-45.0694"/>
<polygon fill="#000000" stroke="#000000" points="179.5229,-43.1864 171.7031,-36.0378 173.3582,-46.5026 179.5229,-43.1864"/>
</g>
<!-- thread3&#45;&gt;数据库 -->
<g id="edge7" class="edge">
<title>thread3&#45;&gt;数据库</title>
<path fill="none" stroke="#000000" d="M132.8413,-72.2052C137.2627,-63.9859 142.5704,-54.1191 147.4385,-45.0694"/>
<polygon fill="#000000" stroke="#000000" points="150.6418,-46.5026 152.2969,-36.0378 144.4771,-43.1864 150.6418,-46.5026"/>
</g>
<!-- thread4&#45;&gt;数据库 -->
<g id="edge8" class="edge">
<title>thread4&#45;&gt;数据库</title>
<path fill="none" stroke="#000000" d="M68.0274,-72.1911C73.7437,-66.6064 80.361,-60.7051 87,-56 98.7678,-47.6601 112.6251,-40.0969 125.2056,-33.9534"/>
<polygon fill="#000000" stroke="#000000" points="126.9809,-36.9854 134.5214,-29.5428 123.9855,-30.6586 126.9809,-36.9854"/>
</g>
</g>
</svg>
